HIERARCHY
ROOT Hips
{
	OFFSET 0.00000 0.00000 0.00000
	CHANNELS 6 Xposition Yposition Zposition Zrotation Yrotation Xrotation 
	JOINT LHipJoint
	{
		OFFSET 0 0 0
		CHANNELS 3 Zrotation Yrotation Xrotation
		JOINT LeftHip
		{
			OFFSET 1.36337 -1.57426 1.11036
			CHANNELS 3 Zrotation Yrotation Xrotation
			JOINT LeftKnee
			{
				OFFSET 2.38468 -6.55187 0.00000
				CHANNELS 3 Zrotation Yrotation Xrotation
				JOINT LeftAnkle
				{
					OFFSET 2.37166 -6.51609 0.00000
					CHANNELS 3 Zrotation Yrotation Xrotation
					JOINT LeftToe
					{
						OFFSET 0.29078 -0.79891 2.01393
						CHANNELS 3 Zrotation Yrotation Xrotation
						End Site
						{
							OFFSET 0.00000 -0.00000 1.07924
						}
					}
				}
			}
		}
	}
	JOINT RHipJoint
	{
		OFFSET 0 0 0
		CHANNELS 3 Zrotation Yrotation Xrotation
		JOINT RightHip
		{
			OFFSET -1.36349 -1.57426 1.11036
			CHANNELS 3 Zrotation Yrotation Xrotation
			JOINT RightKnee
			{
				OFFSET -2.29562 -6.30717 0.00000
				CHANNELS 3 Zrotation Yrotation Xrotation
				JOINT RightAnkle
				{
					OFFSET -2.40985 -6.62100 0.00000
					CHANNELS 3 Zrotation Yrotation Xrotation
					JOINT RightToe
					{
						OFFSET -0.23197 -0.63733 1.92232
						CHANNELS 3 Zrotation Yrotation Xrotation
						End Site
						{
							OFFSET -0.00000 -0.00000 1.01562
						}
					}
				}
			}
		}
	}
	JOINT lowerback
	{
		OFFSET 0 0 0
		CHANNELS 3 Zrotation Yrotation Xrotation
		JOINT Chest
		{
			OFFSET -0.08565 2.03602 -0.24562
			CHANNELS 3 Zrotation Yrotation Xrotation
			JOINT Chest2
			{
				OFFSET -0.00036 2.05693 0.00216
				CHANNELS 3 Zrotation Yrotation Xrotation
				JOINT lowerneck
				{
					OFFSET 0 0 0
					CHANNELS 3 Zrotation Yrotation Xrotation
					JOINT Neck
					{
						OFFSET -0.03664 1.69515 0.31789
						CHANNELS 3 Zrotation Yrotation Xrotation
						JOINT Head
						{
							OFFSET 0.00932 1.70181 -0.46013
							CHANNELS 3 Zrotation Yrotation Xrotation
							End Site
							{
								OFFSET 0.01243 1.77620 -0.19377
							}
						}
					}
				}
				JOINT LeftCollar
				{
					OFFSET 0 0 0
					CHANNELS 3 Zrotation Yrotation Xrotation
					JOINT LeftShoulder
					{
						OFFSET 3.74344 0.81315 -0.36647
CHANNELS 3 Zrotation Xrotation Yrotation
						JOINT LeftElbow
						{
OFFSET 0 -4.971850 -0.000000
CHANNELS 3 Zrotation Xrotation Yrotation
							JOINT LeftWrist
							{
OFFSET 0 -3.358110 0.000000
CHANNELS 3 Zrotation Xrotation Yrotation
								JOINT lhand
								{
									OFFSET 0 0 0
CHANNELS 3 Zrotation Xrotation Yrotation
									JOINT LFingers
									{
OFFSET 0 -0.622780 0.000000
CHANNELS 3 Zrotation Xrotation Yrotation
										End Site
										{
OFFSET 0 -0.502100 0.000000
										}
									}
								}
								JOINT LThumb
								{
OFFSET 0 0.000000 0.000000
CHANNELS 3 Zrotation Xrotation Yrotation
									End Site
									{
OFFSET 0 -0.509760 0.509760
									}
								}
							}
						}
					}
				}
				JOINT RightCollar
				{
					OFFSET 0 0 0
					CHANNELS 3 Zrotation Yrotation Xrotation
					JOINT RightShoulder
					{
						OFFSET -3.75385 0.50666 -0.06525
CHANNELS 3 Zrotation Xrotation Yrotation
						JOINT RightElbow
						{
OFFSET 0 -4.964930 -0.000000
CHANNELS 3 Zrotation Xrotation Yrotation
							JOINT RightWrist
							{
OFFSET 0 -3.349290 0.000000
CHANNELS 3 Zrotation Xrotation Yrotation
								JOINT rhand
								{
									OFFSET 0 0 0
CHANNELS 3 Zrotation Xrotation Yrotation
									JOINT RFingers
									{
OFFSET 0 -0.638040 0.000000
CHANNELS 3 Zrotation Xrotation Yrotation
										End Site
										{
OFFSET 0 -0.514410 0.000000
										}
									}
								}
								JOINT RThumb
								{
OFFSET 0 0.000000 0.000000
CHANNELS 3 Zrotation Xrotation Yrotation
									End Site
									{
OFFSET 0 -0.522260 0.522260
									}
								}
							}
						}
					}
				}
			}
		}
	}
}
MOTION
Frames: 7
Frame Time: 0.008333333333333333
11.380740 15.962855 -2.004096 -210.036324 -75.259787 217.446574 0.000000 0.000000 0.000000 -3.976776 5.648033 -25.212565 2.547594 9.914709 28.708975 -0.483811 13.736291 -11.786662 1.279984 -7.166765 -20.211610 0.000000 0.000000 0.000000 6.654863 -4.459535 -37.639049 -7.122148 -15.433621 49.334239 -1.350590 -6.061590 -24.895182 -0.001003 -0.207360 0.569806 0.933487 -3.631435 29.045268 -0.706365 -4.994995 5.030394 0.553089 -2.572354 -10.482434 -12.165394 -10.596384 -26.192542 7.221705 -11.549533 14.089681 2.556677 -5.248397 9.818531 0.000000 0.000000 0.000000 15.888665 -3.777449 -41.403364 31.987908 -42.537330 12.732725 21.853361 -27.459132 10.904202 0.000000 0.000000 0.000000 -7.125000 0.000000 0.000000 -3.684228 18.267921 -2.348524 0.000000 0.000000 0.000000 -10.967885 -12.195205 35.177384 -21.824954 -32.778177 -6.491017 -10.920498 -10.295588 22.962873 0.000000 0.000000 0.000000 7.125000 0.000000 0.000000 18.541640 52.362133 -3.456997
11.330205 15.996849 -1.949350 -210.245733 -75.806993 217.663386 0.000000 0.000000 0.000000 -3.695136 4.563699 -23.454281 1.941624 8.742406 24.993515 -0.553854 13.972576 -10.530144 1.048017 -6.509722 -18.270831 0.000000 0.000000 0.000000 6.728741 -4.768406 -37.002879 -6.890551 -15.238946 48.459074 -1.262683 -6.736081 -24.640219 -0.000897 0.181941 -0.499742 1.162308 -3.525558 28.470804 -0.732336 -4.785862 5.000634 0.281418 -2.482477 -10.246317 -12.034035 -10.312591 -25.440857 7.129230 -11.262247 13.649681 2.584969 -5.140475 9.498385 0.000000 0.000000 0.000000 15.391552 -3.283896 -40.964248 31.700680 -42.307240 12.538946 22.721755 -27.239496 10.523798 0.000000 0.000000 0.000000 -7.125000 0.000000 0.000000 -3.058432 18.602031 -1.925839 0.000000 0.000000 0.000000 -11.084414 -12.509198 33.918428 -21.230489 -32.096358 -6.171975 -10.692879 -9.708972 23.172288 0.000000 0.000000 0.000000 7.125000 0.000000 0.000000 18.866448 52.521971 -3.596514
11.282225 16.015503 -1.873570 -209.170002 -76.494210 216.539538 0.000000 0.000000 0.000000 -3.315195 3.838845 -22.207904 1.638197 8.066319 22.916535 -0.662426 14.995656 -10.650362 0.831570 -5.812756 -16.243463 0.000000 0.000000 0.000000 7.063302 -4.706287 -36.170523 -6.650123 -15.029671 47.537603 -1.177262 -7.652736 -24.593287 -0.007182 0.545240 -1.498248 1.352962 -3.447246 28.222148 -0.544622 -4.589815 4.826024 0.303301 -2.386416 -10.314965 -11.829338 -10.244447 -25.689911 6.658336 -11.133930 14.146502 2.400722 -5.113782 9.658621 0.000000 0.000000 0.000000 14.736602 -2.560691 -40.665158 31.389526 -42.054844 12.329993 22.896698 -26.918069 10.478304 0.000000 0.000000 0.000000 -7.125000 0.000000 0.000000 -2.933157 18.636140 -1.844508 0.000000 0.000000 0.000000 -11.410549 -12.630428 33.088579 -20.603613 -31.362289 -5.842502 -11.313956 -9.593953 22.641669 0.000000 0.000000 0.000000 7.125000 0.000000 0.000000 18.006820 52.121657 -3.247487
11.232718 16.048387 -1.774608 -208.184773 -77.100945 215.625088 0.000000 0.000000 0.000000 -3.331834 3.510182 -21.520416 1.508210 7.756146 21.975863 -0.727792 15.607078 -10.791604 0.666194 -5.217414 -14.530202 0.000000 0.000000 0.000000 7.207844 -4.503531 -35.271535 -6.365371 -14.772825 46.430019 -1.072095 -8.719924 -24.538448 -0.010197 0.646400 -1.776351 1.433213 -3.305189 27.803823 -0.427332 -4.359000 4.715342 0.284973 -2.275062 -10.221720 -11.661421 -10.274676 -25.966339 6.336743 -11.158741 14.735226 2.243723 -5.142526 9.884816 0.000000 0.000000 0.000000 14.238093 -2.152106 -40.589283 31.218264 -41.914925 12.215394 22.379833 -26.463656 10.901897 0.000000 0.000000 0.000000 -7.125000 0.000000 0.000000 -3.312959 18.225507 -2.114795 0.000000 0.000000 0.000000 -11.543682 -12.927197 32.075685 -19.986818 -30.625981 -5.524851 -12.158028 -9.214044 22.073425 0.000000 0.000000 0.000000 7.125000 0.000000 0.000000 16.927703 51.717500 -2.875779
11.174865 16.101222 -1.646199 -207.812698 -77.566665 215.134957 0.000000 0.000000 0.000000 -3.679692 3.283003 -21.020933 1.459392 7.635255 21.611525 -0.727591 15.710415 -11.201039 0.507378 -4.564409 -12.670610 0.000000 0.000000 0.000000 7.031247 -4.451377 -34.018980 -6.013665 -14.441297 45.036181 -0.980970 -9.203706 -24.177236 -0.002689 0.333108 -0.915279 1.357529 -3.158618 27.672795 -0.354884 -4.167722 4.537551 0.339491 -2.174794 -10.344148 -11.666276 -10.299514 -25.886812 6.202799 -11.188971 15.100184 2.190331 -5.171424 9.997421 0.000000 0.000000 0.000000 13.608283 -1.537431 -40.593097 31.265449 -41.953681 12.246930 21.414720 -25.825037 11.448262 0.000000 0.000000 0.000000 -7.125000 0.000000 0.000000 -4.009675 17.725709 -2.605159 0.000000 0.000000 0.000000 -11.627961 -12.908075 30.765821 -19.541863 -30.086341 -5.299791 -13.119579 -8.634698 21.529278 0.000000 0.000000 0.000000 7.125000 0.000000 0.000000 15.756904 51.350084 -2.523173
11.106557 16.160929 -1.502709 -207.142604 -78.037393 214.308905 0.000000 0.000000 0.000000 -3.967500 3.331702 -20.893146 1.439300 7.584701 21.459659 -0.747230 15.791979 -10.874733 0.367803 -3.888809 -10.764847 0.000000 0.000000 0.000000 6.907960 -4.380793 -32.581880 -5.589047 -14.016540 43.306627 -0.797090 -10.312028 -23.576382 -0.008863 0.606578 -1.666939 1.218772 -2.958252 27.302404 -0.264073 -3.935767 4.505129 0.418579 -2.059470 -10.173200 -12.013840 -10.391992 -25.357810 6.568421 -11.334226 14.955117 2.362055 -5.228031 9.918415 0.000000 0.000000 0.000000 12.958029 -1.182140 -40.884515 31.014196 -41.746868 12.079302 21.095467 -25.854193 12.570934 0.000000 0.000000 0.000000 -7.125000 0.000000 0.000000 -4.270794 16.561785 -2.884235 0.000000 0.000000 0.000000 -11.628263 -13.076496 29.366925 -19.033964 -29.460482 -5.047748 -13.784320 -8.333243 20.783369 0.000000 0.000000 0.000000 7.125000 0.000000 0.000000 14.798918 50.731156 -2.130094
10.991525 16.231095 -1.348106 -208.697514 -78.596295 215.564504 0.000000 0.000000 0.000000 -4.783091 3.399435 -20.704768 1.474056 7.671630 21.721105 -0.677051 15.145021 -10.709155 0.294905 -3.491107 -9.649184 0.000000 0.000000 0.000000 6.305936 -5.152206 -30.714499 -5.113943 -13.509602 41.309977 -0.686000 -10.848467 -23.102968 -0.017639 0.844234 -2.320334 0.839699 -2.914446 26.852571 -0.233366 -3.967870 4.340682 0.661854 -2.054106 -10.103453 -12.040884 -10.410820 -25.179881 6.369048 -11.352673 15.397426 2.293660 -5.262694 10.038087 0.000000 0.000000 0.000000 12.258010 -0.364150 -41.099916 30.975260 -41.714790 12.053393 21.151120 -25.049820 12.690865 0.000000 0.000000 0.000000 -7.125000 0.000000 0.000000 -4.235961 16.429275 -2.873021 0.000000 0.000000 0.000000 -11.521460 -12.640851 28.122733 -18.655720 -28.988493 -4.862954 -13.237787 -8.004108 21.681746 0.000000 0.000000 0.000000 7.125000 0.000000 0.000000 15.713893 51.517319 -2.585105
